<svg width="34" height="34" viewBox="0 0 34 34" fill="none" xmlns="http://www.w3.org/2000/svg">
<path d="M17 0.333008C7.8 0.333008 0.333334 7.79967 0.333334 16.9997C0.333334 26.1997 7.8 33.6663 17 33.6663C26.2 33.6663 33.6667 26.1997 33.6667 16.9997C33.6667 7.79967 26.2 0.333008 17 0.333008ZM17 30.333C9.65 30.333 3.66667 24.3497 3.66667 16.9997C3.66667 9.64968 9.65 3.66634 17 3.66634C24.35 3.66634 30.3333 9.64968 30.3333 16.9997C30.3333 24.3497 24.35 30.333 17 30.333ZM24.65 9.63301L13.6667 20.6163L9.35 16.3163L7 18.6663L13.6667 25.333L27 11.9997L24.65 9.63301Z" fill="#1C3B22"/>
</svg>
