<svg width="34" height="34" viewBox="0 0 34 34" fill="none" xmlns="http://www.w3.org/2000/svg">
<path d="M22.75 24.5331L17.7333 19.5165C17.55 19.3331 17.3333 19.2998 17.2166 19.2998C17.1 19.2998 16.8833 19.3331 16.7 19.5165L11.6666 24.5498C11.1 25.1165 10.2166 26.0331 7.26665 26.0331L13.45 32.1998C15.4 34.1498 18.5666 34.1498 20.5166 32.1998L26.7166 26.0165C25.2 26.0165 23.9333 25.7165 22.75 24.5331Z" fill="#404241"/>
<path d="M11.6667 9.4499L16.7 14.4832C16.8333 14.6166 17.0333 14.6999 17.2167 14.6999C17.4 14.6999 17.6 14.6166 17.7333 14.4832L22.7167 9.4999C23.9 8.26657 25.25 7.98324 26.7667 7.98324L20.5667 1.7999C18.6167 -0.150098 15.45 -0.150098 13.5 1.7999L7.31667 7.96657C10.25 7.96657 11.15 8.93324 11.6667 9.4499Z" fill="#404241"/>
<path d="M32.1833 13.4165L28.4333 9.64979H26.3333C25.4333 9.64979 24.5333 10.0165 23.9167 10.6665L18.9167 15.6665C18.45 16.1331 17.8333 16.3665 17.2167 16.3665C16.6167 16.3665 15.9833 16.1165 15.5167 15.6665L10.4833 10.6165C9.85 9.98312 8.98333 9.61646 8.06667 9.61646H5.61667L1.8 13.4498C-0.149998 15.3998 -0.149998 18.5665 1.8 20.5165L5.61667 24.3498H8.08333C8.98333 24.3498 9.85 23.9831 10.5 23.3498L15.5333 18.3165C16 17.8498 16.6167 17.6165 17.2333 17.6165C17.85 17.6165 18.4667 17.8498 18.9333 18.3165L23.95 23.3331C24.5833 23.9665 25.45 24.3331 26.3667 24.3331H28.4667L32.2167 20.5665C34.1667 18.5998 34.1667 15.3998 32.1833 13.4165Z" fill="#404241"/>
</svg>
